<svg xmlns="http://www.w3.org/2000/svg" viewBox="0 0 64 64" role="img" aria-labelledby="title desc">
  <title id="title">WikiRead mark</title>
  <desc id="desc">Open book icon with WR letters</desc>

  <rect width="64" height="64" rx="14" fill="#eaf4f0"/>
  <path d="M8 48V16c8-4 16-4 24 0v32c-8-4-16-4-24 0z" fill="#0f766e"/>
  <path d="M32 48V16c8-4 16-4 24 0v32c-8-4-16-4-24 0z" fill="#0f766e"/>
  <path d="M12 44V20c6-3 12-3 18 0v24c-6-3-12-3-18 0z" fill="#fff"/>
  <path d="M34 44V20c6-3 12-3 18 0v24c-6-3-12-3-18 0z" fill="#fff"/>
  <path d="M32 14v36" stroke="#0f766e" stroke-width="2.8" stroke-linecap="round"/>
  <text x="32" y="38" text-anchor="middle" fill="#0f766e" font-family="Space Grotesk, Segoe UI, sans-serif" font-size="10" font-weight="700">WR</text>
</svg>
